<mxfile host="app.diagrams.net" agent="Mozilla/5.0 (Windows NT 10.0; Win64; x64) AppleWebKit/537.36 (KHTML, like Gecko) Chrome/127.0.0.0 Safari/537.36" version="24.7.7">
  <diagram name="Page-1" id="GZKADFs0SiDsuToa8gMP">
    <mxGraphModel dx="1420" dy="724" grid="1" gridSize="10" guides="1" tooltips="1" connect="1" arrows="1" fold="1" page="1" pageScale="1" pageWidth="1400" pageHeight="850" math="0" shadow="0">
      <root>
        <mxCell id="0" />
        <mxCell id="1" parent="0" />
        <mxCell id="-Nm19998uixpx7mhyP6F-1" value="" style="html=1;verticalLabelPosition=bottom;align=center;labelBackgroundColor=#ffffff;verticalAlign=top;strokeWidth=2;strokeColor=#0080F0;shadow=0;dashed=0;shape=mxgraph.ios7.icons.home;" vertex="1" parent="1">
          <mxGeometry x="170" y="120" width="220" height="140" as="geometry" />
        </mxCell>
        <mxCell id="-Nm19998uixpx7mhyP6F-2" value="" style="shape=mxgraph.signs.animals.dog_on_leash;html=1;pointerEvents=1;fillColor=#000000;strokeColor=none;verticalLabelPosition=bottom;verticalAlign=top;align=center;" vertex="1" parent="1">
          <mxGeometry x="320" y="200" width="47" height="51" as="geometry" />
        </mxCell>
        <mxCell id="-Nm19998uixpx7mhyP6F-4" value="" style="image;aspect=fixed;perimeter=ellipsePerimeter;html=1;align=center;shadow=0;dashed=0;spacingTop=3;image=img/lib/active_directory/tunnel.svg;" vertex="1" parent="1">
          <mxGeometry x="367" y="310" width="350" height="70" as="geometry" />
        </mxCell>
        <mxCell id="-Nm19998uixpx7mhyP6F-5" value="&lt;b&gt;&lt;font color=&quot;#0000ff&quot;&gt;dog park/ endpoint-service&lt;/font&gt;&lt;/b&gt;" style="rounded=1;whiteSpace=wrap;html=1;absoluteArcSize=1;arcSize=14;strokeWidth=2;" vertex="1" parent="1">
          <mxGeometry x="740" y="280" width="150" height="100" as="geometry" />
        </mxCell>
        <mxCell id="-Nm19998uixpx7mhyP6F-6" value="" style="shape=mxgraph.signs.travel.elevator;html=1;pointerEvents=1;fillColor=#000000;strokeColor=none;verticalLabelPosition=bottom;verticalAlign=top;align=center;" vertex="1" parent="1">
          <mxGeometry x="290" y="260" width="65" height="100" as="geometry" />
        </mxCell>
        <mxCell id="-Nm19998uixpx7mhyP6F-16" value="&lt;b&gt;&lt;font color=&quot;#0000ff&quot;&gt;home/vpc&lt;/font&gt;&lt;/b&gt;" style="text;strokeColor=none;align=center;fillColor=none;html=1;verticalAlign=middle;whiteSpace=wrap;rounded=0;" vertex="1" parent="1">
          <mxGeometry x="180" y="230" width="70" height="30" as="geometry" />
        </mxCell>
        <mxCell id="-Nm19998uixpx7mhyP6F-17" value="&lt;b&gt;&lt;font color=&quot;#0000ff&quot;&gt;dog/task&lt;/font&gt;&lt;/b&gt;" style="text;strokeColor=none;align=center;fillColor=none;html=1;verticalAlign=middle;whiteSpace=wrap;rounded=0;" vertex="1" parent="1">
          <mxGeometry x="300" y="175" width="70" height="30" as="geometry" />
        </mxCell>
        <mxCell id="-Nm19998uixpx7mhyP6F-18" value="&lt;b&gt;&lt;font color=&quot;#0000ff&quot;&gt;Lift/vpc endpoint&lt;/font&gt;&lt;/b&gt;" style="text;strokeColor=none;align=center;fillColor=none;html=1;verticalAlign=middle;whiteSpace=wrap;rounded=0;" vertex="1" parent="1">
          <mxGeometry x="220" y="315" width="70" height="30" as="geometry" />
        </mxCell>
        <mxCell id="-Nm19998uixpx7mhyP6F-19" value="&lt;b&gt;&lt;font color=&quot;#0000ff&quot;&gt;Basement way/ private link&lt;/font&gt;&lt;/b&gt;" style="text;strokeColor=none;align=center;fillColor=none;html=1;verticalAlign=middle;whiteSpace=wrap;rounded=0;" vertex="1" parent="1">
          <mxGeometry x="470" y="330" width="160" height="30" as="geometry" />
        </mxCell>
        <mxCell id="-Nm19998uixpx7mhyP6F-20" value="" style="shape=mxgraph.signs.transportation.uneven_road;html=1;pointerEvents=1;fillColor=#000000;strokeColor=none;verticalLabelPosition=bottom;verticalAlign=top;align=center;" vertex="1" parent="1">
          <mxGeometry x="501" y="192" width="99" height="68" as="geometry" />
        </mxCell>
        <mxCell id="-Nm19998uixpx7mhyP6F-21" value="&lt;b&gt;&lt;font color=&quot;#0000ff&quot;&gt;road/ public internet&lt;/font&gt;&lt;/b&gt;" style="text;strokeColor=none;align=center;fillColor=none;html=1;verticalAlign=middle;whiteSpace=wrap;rounded=0;" vertex="1" parent="1">
          <mxGeometry x="480" y="159" width="140" height="30" as="geometry" />
        </mxCell>
      </root>
    </mxGraphModel>
  </diagram>
</mxfile>
